<?xml version="1.0" encoding="utf-8"?>
<!-- Generator: Adobe Illustrator 22.1.0, SVG Export Plug-In . SVG Version: 6.00 Build 0)  -->
<svg version="1.1" id="e8ab07fb-aa66-4eb8-9149-b5abc1630568"
	 xmlns="http://www.w3.org/2000/svg" xmlns:xlink="http://www.w3.org/1999/xlink" x="0px" y="0px" viewBox="0 0 799.7 607.2"
	 style="enable-background:new 0 0 799.7 607.2;" xml:space="preserve">
<style type="text/css">
	.st0{fill:#E6E6E6;}
	.st1{fill:#FFFFFF;}
	.st2{fill:#0802AF;}
	.st3{fill:#2F2E41;}
	.st4{fill:#FFB8B8;}
	.st5{fill:#3F3D56;}
	.st6{opacity:0.3;enable-background:new    ;}
</style>
<rect x="0.3" y="0.4" class="st0" width="643.9" height="412.4"/>
<rect x="18.7" y="52.1" class="st1" width="607" height="336.2"/>
<rect y="0" class="st2" width="643.9" height="27.4"/>
<circle class="st1" cx="20.3" cy="14" r="5.1"/>
<circle class="st1" cx="39.6" cy="14" r="5.1"/>
<circle class="st1" cx="58.8" cy="14" r="5.1"/>
<rect x="73.8" y="87" class="st0" width="156" height="266.5"/>
<rect x="256.7" y="87" class="st2" width="130" height="73.3"/>
<rect x="256.7" y="180.7" class="st0" width="130" height="78.9"/>
<rect x="256.7" y="280.1" class="st0" width="130" height="73.3"/>
<rect x="414.6" y="87" class="st0" width="156" height="116.1"/>
<rect x="414.6" y="237.3" class="st2" width="156" height="116.1"/>
<path class="st3" d="M736.6,206.7c-10.3-17.5-30.6-18.4-30.6-18.4s-19.8-2.6-32.6,24.1c-11.9,24.9-28.2,48.9-2.6,54.8l4.6-14.5
	l2.9,15.6c3.6,0.3,7.3,0.3,11,0.2c27.4-0.9,53.5,0.3,52.7-9.7C740.8,245.7,746.5,223.6,736.6,206.7z"/>
<path class="st4" d="M639.1,300.3l-9,23l-45,42c0,0-27,20-15,26s23-22,23-22l48-29l10-33L639.1,300.3z"/>
<polygon class="st4" points="654.1,555.3 663.1,578.3 676.1,578.3 665.1,551.3 "/>
<polygon class="st4" points="693.1,565.3 702.1,588.3 715.1,588.3 704.1,561.3 "/>
<path class="st3" d="M692.1,569.3l17-4l-22-89l7.3-68.5h0.2c0,0,12.5-48.5,2.5-61.5s-60-8-60-8s-19,19-18,62s0,80,7,97
	c7,17,27,62,27,62l16-2l-17-74l-2.7-64.3c2.2,25.8,6.5,74.7,8.7,78.3C661.1,502.3,692.1,569.3,692.1,569.3z"/>
<path class="st4" d="M743.1,321.3l7,25l31,56c0,0,27,24,16,27s-28-22-28-22l-35-49l-9-36L743.1,321.3z"/>
<circle class="st4" cx="707.1" cy="225.3" r="25"/>
<path class="st4" d="M694.1,238.3l-6,19l-10,22l37-15c0,0-2-16,0-20L694.1,238.3z"/>
<path class="st2" d="M737.1,278.3l-23-19l-26,11l1-16.2l-27.7,8.9l-4.3,1.4l-6,31c0,0-4,3-8,20c-2.3,10-5.7,19.7-10,29
	c0,0,43-17,64,6c0,0,3-2,2-5s9-18,9-18s0,3,4-3s7-7,7-7L737.1,278.3z"/>
<path class="st2" d="M663.1,267.3l-4.4-3.5c0,0-3.6-1.5-6.6,3.5s-18,36-18,36l18,9L663.1,267.3z"/>
<path class="st2" d="M723.1,277.3l14,1c0,0,8,4,8,10s2,38,2,38l-22,7l-9-28L723.1,277.3z"/>
<path class="st3" d="M660.2,574.8l-17,7c0,0-20,1-17,11s33,3,33,3s27,1,27-6s-4-15-8-15H660.2z"/>
<path class="st3" d="M698.2,583.8l-17,7c0,0-20,1-17,11s33,3,33,3s27,1,27-6s-4-15-8-15H698.2z"/>
<polygon class="st3" points="732.1,205 712,194.4 684.2,198.7 678.5,224.3 692.8,223.8 696.8,214.3 696.8,223.6 703.4,223.3 
	707.2,208.4 709.6,224.3 733,223.8 "/>
<path class="st5" d="M597.6,83.5c-57-48.1-142.2-40.9-190.3,16.1s-40.9,142.2,16.1,190.3c53.3,45,132.1,42,181.8-7l165.6,139.7
	c5.2,4.4,13.1,3.8,17.5-1.5c4.4-5.2,3.8-13.1-1.5-17.5l0,0L621.3,263.9C661.2,206.7,650.9,128.5,597.6,83.5z M586.9,250.5
	c-36,42.7-99.8,48.1-142.5,12.1s-48.1-99.8-12.1-142.5S532.1,72,574.8,108l0,0C617.5,144,622.9,207.8,586.9,250.5z"/>
<path class="st6" d="M444.4,262.6c-40.2-34-47.7-93.1-17.2-136c-1.9,1.9-3.8,4-5.6,6.1c-36,42.7-30.6,106.5,12.1,142.5
	s106.5,30.6,142.5-12.1c1.8-2.1,3.5-4.3,5.1-6.6C544.2,293.9,484.6,296.5,444.4,262.6z"/>
</svg>
