<?xml version="1.0" encoding="utf-8"?>
<!-- Generator: Adobe Illustrator 22.1.0, SVG Export Plug-In . SVG Version: 6.00 Build 0)  -->
<svg version="1.1" id="Camada_1" xmlns="http://www.w3.org/2000/svg" xmlns:xlink="http://www.w3.org/1999/xlink" x="0px" y="0px"
	 viewBox="0 0 466.9 263.8" style="enable-background:new 0 0 466.9 263.8;" xml:space="preserve">
<style type="text/css">
	.st0{fill:#00153D;}
	.st1{fill:none;stroke:#00153D;stroke-width:0.9953;stroke-miterlimit:10;}
	.st2{fill:#D1B32B;}
	.st3{fill:none;stroke:#D1B32B;stroke-width:3.2349;stroke-miterlimit:10;}
	.st4{fill:#08163E;}
	.st5{fill:none;stroke:#FDED00;stroke-width:2.4884;stroke-miterlimit:10;}
	.st6{fill:#9B9A9F;}
	.st7{font-family:'MyriadPro-Regular';}
	.st8{font-size:2.0571px;}
	.st9{fill:none;}
</style>
<g>
	<rect x="129.3" y="192" class="st0" width="16.4" height="9.3"/>
	<rect x="59.6" y="192" class="st0" width="16.4" height="9.3"/>
	<rect x="52.8" y="186.4" class="st0" width="98.5" height="5.6"/>
	<ellipse class="st0" cx="124.5" cy="127" rx="8.1" ry="8.2"/>
	<polygon class="st0" points="113.8,148.5 114.2,138.5 121.2,137.3 124.2,141.1 127.5,137.3 133.3,137.3 134.6,148.5 	"/>
	<polygon class="st0" points="88.1,148.5 83,141.7 75.4,141.7 69.8,148.5 72.9,148.5 75,145.7 75.4,145.7 75.4,148.5 82.5,148.5 
		82.5,145.1 82.8,145.1 85,148.5 	"/>
	<circle class="st1" cx="79.1" cy="133.6" r="5.9"/>
	<path class="st0" d="M84.5,134h-4.7v-2.2h-0.7l-1.4,2.2h-1v-1.2l-0.4-0.1l-0.7,0l-1.2,1.5h-1.8c0,0,1.1-6,6.6-6.5s6.2,5.6,5.2,6.1"
		/>
	<path class="st0" d="M85.3,133c0,0,1.2,0.7,1.3,0.8c0.8,0.5,1.5,1.2,2,2c0.4,0.7,0.4,1.6,0.1,2.3c-0.2,0.4-0.4,0.7-0.7,1
		c-0.2,0.2-0.3,0.3-0.5,0c-0.1-0.2-0.1-0.5-0.2-0.8c-0.1-0.3-0.3-0.7-0.5-1c-0.4-0.9-1-1.7-1.8-2.3C84.9,134.8,85.3,133,85.3,133z"
		/>
	<path class="st0" d="M73.1,132.6c0,0-1.2,0.7-1.3,0.8c-0.8,0.5-1.5,1.2-2,2c-0.4,0.7-0.4,1.6-0.1,2.3c0.2,0.4,0.4,0.7,0.7,1
		c0.2,0.2,0.3,0.3,0.5,0c0.1-0.2,0.1-0.5,0.2-0.8c0.1-0.3,0.3-0.7,0.5-1c0.4-0.9,1-1.7,1.8-2.3C73.5,134.5,73.1,132.6,73.1,132.6z"
		/>
	<path class="st2" d="M151.2,96c0-0.4-2.1-1.4-2.3-1.5c-2.4-1.4-5-2.5-7.6-3.5c-4.4-1.6-8.9-2.8-13.5-3.7
		c-12.2-2.4-24.6-2.7-37.1-2.6c-11.1,0-22.5,2.2-32.3,7.5c-0.3,0.2-0.6,0.3-0.9,0.5c-1,0.6-2,1.1-2.9,1.8c-0.4,0.3-2.1,1.1-2.1,1.6
		l0.3,86h98.5C151.3,181.8,151.2,96,151.2,96z M135.3,94.7c2.3,0,4.2,1.9,4.2,4.2s-1.9,4.2-4.2,4.2c-2.3,0-4.2-1.9-4.2-4.2
		S133,94.7,135.3,94.7z M142.7,111.3v37.2h-38.2v-37.2H142.7z M77.9,95.8H126v5.9H77.9V95.8z M68.6,94.7c2.3,0,4.2,1.9,4.2,4.2
		s-1.9,4.2-4.2,4.2c-2.3,0-4.2-1.9-4.2-4.2S66.2,94.7,68.6,94.7z M60.1,111.3h38.1v37.2H60.1V111.3z M67.8,174
		c-4.5,0-8.2-3.8-8.2-8.5c0-4.7,3.7-8.5,8.2-8.5c4.5,0,8.2,3.8,8.2,8.5C76,170.2,72.3,174,67.8,174z M121.2,177.8H83.1v-4.7h38.1
		V177.8z M121.2,169.5H83.1v-4.7h38.1V169.5z M121.2,160.9H83.1v-4.7h38.1V160.9z M137.5,174c-4.5,0-8.2-3.8-8.2-8.5
		c0-4.7,3.7-8.5,8.2-8.5s8.2,3.8,8.2,8.5C145.7,170.2,142.1,174,137.5,174z"/>
	<rect x="34.2" y="112.2" class="st3" width="17.2" height="65.6"/>
	<rect x="39.5" y="119.6" class="st2" width="10.3" height="13.9"/>
	<rect x="153.9" y="119.6" class="st2" width="10.3" height="13.9"/>
	<polygon class="st0" points="16.8,202.5 16.8,201.7 15.5,201.7 16.5,193.7 15.3,185.3 9.7,185.3 12.1,193.9 10.3,201.6 10.3,202.5 
			"/>
	<polygon class="st0" points="11.2,177.5 11.2,170.7 13.7,170.7 13.7,175 15.3,175.9 15.3,168.2 8.7,168.2 8.7,184.6 15.3,184.6 
		15.3,179.7 	"/>
	<path class="st0" d="M8.8,182.4l-1.2-0.3v1L0.1,184c0,0,0.1-13.3,1-13.7c0,0-0.2-1.1,5.2-2.1l0-1.3h0.6l0,1.3h0.5l0,0.3l1.2,0v1.9
		H7.5l0.1,9.8l1.2,0.5L8.8,182.4z"/>
	<circle class="st0" cx="13.7" cy="162.8" r="4.1"/>
	<polygon class="st0" points="44.2,202.1 44.2,201 42.4,201 43.7,189.7 42,178.1 34.2,178.1 37.7,190.1 35.1,200.9 35.1,202.1 	"/>
	<polygon class="st0" points="36.4,167.1 36.4,157.7 39.8,157.7 39.8,163.6 42.1,165 42.1,154.2 32.9,154.2 32.9,177.1 42.1,177.1 
		42.1,170.2 	"/>
	<path class="st0" d="M32.9,174.1l-1.7-0.4v1.3l-10.4,1.3c0,0,0.2-18.6,1.4-19.2c0,0-0.2-1.6,7.2-2.9l0.1-1.8h0.8l0.1,1.8h0.8
		l0.1,0.5l1.7-0.1v2.6h-1.7l0.1,13.7l1.7,0.6L32.9,174.1z"/>
	<circle class="st0" cx="39.8" cy="146.7" r="5.7"/>
	<g>
		<path class="st4" d="M217.9,118.1c-3.5,3.4-7.9,5-12.8,5c-12.5,0-17.8-8.6-17.8-17.4c0-8.8,5.7-17.7,17.8-17.7
			c4.6,0,8.9,1.7,12.4,5.1l-4.2,4.1c-2.2-2.2-5.2-3.2-8.1-3.2c-8.1,0-11.6,6.1-11.6,11.7c0,5.6,3.3,11.4,11.6,11.4
			c2.9,0,6.3-1.2,8.5-3.4L217.9,118.1z"/>
		<path class="st4" d="M248.4,116h-17.6l-2.9,6.3H221l15.1-33.7h6.9l15.1,33.7h-6.9L248.4,116z M239.6,95.8l-6.3,14.3h12.5
			L239.6,95.8z"/>
		<path class="st4" d="M295.4,122.4h-7.6l-9.8-11.3H272v11.3h-6.3V88.7c5.3,0,10.7,0,16,0c7.9,0,12.1,5.3,12.1,11.2
			c0,4.6-2.1,9.3-8.5,10.6l10.2,11.5V122.4z M272,94.6v10.8h9.7c4,0,5.8-2.7,5.8-5.4c0-2.7-1.8-5.4-5.8-5.4H272z"/>
		<path class="st4" d="M308.9,88.7v27.8h17.3v5.9h-23.7V88.7H308.9z"/>
		<path class="st4" d="M335.4,122.4V88.7h6.3v33.7H335.4z"/>
		<path class="st4" d="M374.3,88.7h6.3v33.7h-3.9v0L359,99.7v22.7h-6.3V88.7h5.1l16.5,20.9V88.7z"/>
		<path class="st4" d="M420.7,105.2c0.1,8.5-5.1,17.1-16.8,17.1c-4.1,0-9.1,0-13.2,0V88.7c4.1,0,9.1,0,13.2,0
			C415.4,88.7,420.5,96.9,420.7,105.2z M396.9,116.3h6.9c7.6,0,10.7-5.6,10.5-11.1c-0.1-5.2-3.2-10.5-10.5-10.5h-6.9V116.3z"/>
		<path class="st4" d="M463,105.7c-0.1,8.7-5.4,17.4-17.3,17.4c-11.8,0-17.3-8.5-17.3-17.4S434.1,88,445.7,88
			C457.3,88,463.1,96.9,463,105.7z M434.7,105.9c0.1,5.5,3.1,11.4,11.1,11.4c7.9,0,10.9-6,11-11.5c0.1-5.7-3.1-12-11-12
			C437.8,93.8,434.5,100.2,434.7,105.9z"/>
	</g>
	<g>
		<path class="st0" d="M212.3,146.7c-2.2-2.1-5.4-3.2-8.2-3.2c-6.9,0-11.1,5.2-11.1,11.8c0,5.3,3.1,10.7,11.1,10.7
			c2.5,0,4.7-0.6,7.2-2.6v-5.7h-8.2v-5.4H217v13.5c-3.2,3.6-7.2,5.8-12.8,5.8c-12.1,0-17-7.9-17-16.4c0-9,5.6-17.4,17-17.4
			c4.3,0,8.6,1.7,11.9,4.9L212.3,146.7z"/>
		<path class="st0" d="M250.1,138.9v18.4c0,9.5-5.8,14.4-13.9,14.4c-7.7,0-14.3-4.7-14.3-14.4v-18.4h6v18.4c0,5.8,3.3,8.9,8.3,8.9
			c5,0,7.8-3.3,7.8-8.9v-18.4H250.1z"/>
		<path class="st0" d="M256.1,171v-32.1h6V171H256.1z"/>
		<path class="st0" d="M295.8,147.7l-10.5,13.9h-1.2l-10.2-14V171h-6.1v-32.1h7l10,13.8l10-13.8h6.9V171h-6.1V147.7z"/>
		<path class="st0" d="M330.3,164.9h-16.8l-2.8,6.1h-6.6l14.4-32.1h6.6l14.4,32.1H333L330.3,164.9z M321.9,145.6l-6,13.7h11.9
			L321.9,145.6z"/>
		<path class="st0" d="M370.8,171h-7.2l-9.4-10.7h-5.8V171h-6.1v-32.2c5.1,0,10.2,0,15.3,0c7.6,0,11.6,5.1,11.6,10.6
			c0,4.4-2,8.9-8.1,10.1l9.7,11V171z M348.4,144.5v10.3h9.2c3.9,0,5.5-2.6,5.5-5.1c0-2.6-1.7-5.1-5.5-5.1H348.4z"/>
		<path class="st0" d="M396.1,164.9h-16.8l-2.8,6.1H370l14.4-32.1h6.6l14.4,32.1h-6.6L396.1,164.9z M379.4,134
			c1.1-2.8,2.9-4.7,6.1-4c2.2,0.5,4.4,3,5.8,0l3.8,1.8c-1.4,3.6-3.7,4.7-5.9,4.1c-2.3-0.6-4.4-3.4-6.2,0L379.4,134z M387.7,145.6
			l-6,13.7h11.9L387.7,145.6z"/>
		<path class="st0" d="M431.6,171h-24c0-10.7,0-21.4,0-32.1h24v5.9h-18v7.4H431v5.6h-17.4v7.2h18V171z"/>
		<path class="st0" d="M457.1,146.6c-1.1-1.8-4.1-3.6-7.6-3.6c-4.5,0-6.7,1.9-6.7,4.3c0,2.8,3.3,3.6,7.2,4
			c6.7,0.8,12.9,2.6,12.9,10.2c0,7.2-6.3,10.2-13.5,10.2c-6.6,0-11.6-2-14-7.9l5-2.6c1.4,3.5,5.1,5.1,9,5.1c3.8,0,7.4-1.3,7.4-4.8
			c0-3-3.2-4.3-7.4-4.7c-6.6-0.8-12.6-2.5-12.6-9.7c0-6.6,6.5-9.3,12.4-9.4c5,0,10.2,1.4,12.6,6.4L457.1,146.6z"/>
	</g>
	<g>
		<path class="st0" d="M202.2,188h7.8v1.3h-6.4v4.3h6.4v1.3h-6.4v5.4h6.4v1.3h-7.8V188z"/>
		<path class="st0" d="M219.6,192.6l-0.8,0.9c-0.7-0.7-1.4-1-2-1c-0.4,0-0.8,0.1-1.1,0.4c-0.3,0.3-0.5,0.6-0.5,1
			c0,0.3,0.1,0.6,0.4,0.9c0.2,0.3,0.8,0.7,1.6,1.1c1,0.5,1.6,1,2,1.4c0.3,0.5,0.5,1,0.5,1.6c0,0.8-0.3,1.5-0.9,2.1
			c-0.6,0.6-1.3,0.9-2.2,0.9c-0.6,0-1.1-0.1-1.7-0.4c-0.5-0.3-1-0.6-1.3-1l0.8-0.9c0.7,0.7,1.4,1.1,2.1,1.1c0.5,0,1-0.2,1.3-0.5
			c0.4-0.3,0.5-0.7,0.5-1.2c0-0.4-0.1-0.7-0.4-1c-0.2-0.3-0.8-0.6-1.6-1.1c-0.9-0.5-1.5-0.9-1.9-1.4c-0.3-0.5-0.5-1-0.5-1.6
			c0-0.8,0.3-1.4,0.8-1.9c0.5-0.5,1.2-0.8,2-0.8C217.7,191.3,218.7,191.7,219.6,192.6z"/>
		<path class="st0" d="M234.1,193.6l-1,0.6c-0.9-1.2-2.1-1.8-3.6-1.8c-1.2,0-2.2,0.4-3.1,1.2c-0.8,0.8-1.2,1.7-1.2,2.9
			c0,0.7,0.2,1.4,0.6,2.1c0.4,0.6,0.9,1.2,1.5,1.5c0.7,0.4,1.4,0.5,2.2,0.5c1.5,0,2.7-0.6,3.6-1.8l1,0.7c-0.5,0.7-1.1,1.3-1.9,1.7
			c-0.8,0.4-1.7,0.6-2.8,0.6c-1.6,0-2.9-0.5-4-1.5c-1.1-1-1.6-2.2-1.6-3.7c0-1,0.2-1.9,0.7-2.7c0.5-0.8,1.2-1.5,2-2
			c0.9-0.5,1.8-0.7,2.9-0.7c0.7,0,1.3,0.1,1.9,0.3c0.6,0.2,1.1,0.5,1.6,0.8C233.4,192.7,233.8,193.1,234.1,193.6z"/>
		<path class="st0" d="M243.7,191.3c1.6,0,2.8,0.6,3.9,1.7c0.9,1,1.4,2.2,1.4,3.6c0,1.4-0.5,2.6-1.5,3.7c-1,1.1-2.2,1.6-3.8,1.6
			c-1.5,0-2.8-0.5-3.8-1.6c-1-1.1-1.5-2.3-1.5-3.7c0-1.4,0.5-2.6,1.4-3.6C240.9,191.8,242.2,191.3,243.7,191.3z M243.7,192.5
			c-1.1,0-2,0.4-2.8,1.2c-0.8,0.8-1.2,1.8-1.2,2.9c0,0.7,0.2,1.4,0.5,2c0.4,0.6,0.8,1.1,1.4,1.5c0.6,0.3,1.3,0.5,2,0.5
			c0.7,0,1.4-0.2,2-0.5c0.6-0.3,1.1-0.8,1.4-1.5c0.4-0.6,0.5-1.3,0.5-2c0-1.1-0.4-2.1-1.2-2.9C245.7,192.9,244.8,192.5,243.7,192.5z
			"/>
		<path class="st0" d="M253.5,187.6h1.3v14h-1.3V187.6z"/>
		<path class="st0" d="M270,191.5v10.1h-1.3v-1.7c-0.5,0.7-1.2,1.2-1.8,1.5c-0.7,0.3-1.4,0.5-2.2,0.5c-1.4,0-2.6-0.5-3.7-1.6
			c-1-1-1.5-2.3-1.5-3.8c0-1.5,0.5-2.7,1.5-3.7c1-1,2.2-1.5,3.7-1.5c0.8,0,1.6,0.2,2.2,0.5c0.7,0.4,1.3,0.9,1.8,1.6v-1.9H270z
			 M264.8,192.5c-0.7,0-1.4,0.2-2,0.5c-0.6,0.4-1.1,0.9-1.5,1.5c-0.4,0.6-0.5,1.3-0.5,2c0,0.7,0.2,1.4,0.5,2
			c0.4,0.6,0.9,1.2,1.5,1.5c0.6,0.4,1.3,0.5,2,0.5c0.7,0,1.4-0.2,2-0.5c0.6-0.4,1.1-0.8,1.5-1.5c0.3-0.6,0.5-1.3,0.5-2.1
			c0-1.2-0.4-2.1-1.2-2.9C266.8,192.9,265.9,192.5,264.8,192.5z"/>
		<path class="st0" d="M274.8,191.5h1.3v1.5c0.4-0.6,0.8-1,1.3-1.3c0.4-0.3,0.9-0.4,1.4-0.4c0.4,0,0.7,0.1,1.1,0.3l-0.7,1.1
			c-0.3-0.1-0.5-0.2-0.7-0.2c-0.4,0-0.8,0.2-1.3,0.5c-0.4,0.4-0.7,0.9-0.9,1.7c-0.2,0.6-0.2,1.7-0.2,3.5v3.4h-1.3V191.5z"/>
		<path class="st0" d="M299.4,198.3l1.1,0.6c-0.4,0.7-0.8,1.3-1.2,1.7c-0.5,0.4-1,0.8-1.6,1c-0.6,0.2-1.3,0.3-2,0.3
			c-1.6,0-2.9-0.5-3.9-1.6c-0.9-1.1-1.4-2.3-1.4-3.7c0-1.3,0.4-2.4,1.2-3.4c1-1.3,2.3-1.9,4-1.9c1.7,0,3.1,0.7,4.1,2
			c0.7,0.9,1.1,2.1,1.1,3.4h-9.1c0,1.2,0.4,2.1,1.1,2.9c0.7,0.7,1.6,1.1,2.7,1.1c0.5,0,1-0.1,1.5-0.3c0.5-0.2,0.9-0.4,1.2-0.7
			C298.7,199.4,299,198.9,299.4,198.3z M299.4,195.5c-0.2-0.7-0.4-1.2-0.8-1.7c-0.3-0.4-0.8-0.7-1.3-1c-0.5-0.3-1.1-0.4-1.7-0.4
			c-1,0-1.8,0.3-2.6,1c-0.5,0.5-0.9,1.2-1.2,2.1H299.4z"/>
		<path class="st0" d="M313.5,188h1.4v8.2c0,1,0,1.6,0.1,1.8c0.1,0.5,0.2,1,0.5,1.3c0.2,0.4,0.6,0.7,1.1,0.9c0.5,0.2,1,0.4,1.5,0.4
			c0.5,0,0.9-0.1,1.3-0.3c0.4-0.2,0.8-0.5,1-0.8c0.3-0.3,0.5-0.8,0.6-1.2c0.1-0.3,0.1-1.1,0.1-2.1V188h1.4v8.2c0,1.2-0.1,2.2-0.4,3
			c-0.2,0.8-0.7,1.4-1.4,2c-0.7,0.6-1.6,0.8-2.6,0.8c-1.1,0-2-0.3-2.8-0.8c-0.8-0.5-1.3-1.2-1.6-2.1c-0.2-0.5-0.3-1.5-0.3-2.9V188z"
			/>
		<path class="st0" d="M328.1,191.5h1.3v1.8c0.5-0.7,1.1-1.2,1.7-1.6c0.6-0.3,1.3-0.5,2.1-0.5c0.8,0,1.4,0.2,2,0.6
			c0.6,0.4,1,0.9,1.3,1.5c0.3,0.6,0.4,1.7,0.4,3v5.2h-1.3v-4.8c0-1.2,0-1.9-0.1-2.3c-0.2-0.7-0.4-1.2-0.9-1.5
			c-0.4-0.3-1-0.5-1.7-0.5c-0.8,0-1.5,0.3-2.1,0.8c-0.6,0.5-1,1.2-1.2,1.9c-0.1,0.5-0.2,1.4-0.2,2.7v3.7h-1.3V191.5z"/>
		<path class="st0" d="M342.5,187.4c0.3,0,0.5,0.1,0.8,0.3c0.2,0.2,0.3,0.5,0.3,0.8c0,0.3-0.1,0.5-0.3,0.8c-0.2,0.2-0.5,0.3-0.8,0.3
			c-0.3,0-0.5-0.1-0.7-0.3c-0.2-0.2-0.3-0.5-0.3-0.8c0-0.3,0.1-0.5,0.3-0.8C341.9,187.5,342.2,187.4,342.5,187.4z M341.8,191.5h1.3
			v10.1h-1.3V191.5z"/>
		<path class="st0" d="M347.2,191.5h1.4l3.4,7.3l3.3-7.3h1.4l-4.6,10.1h-0.2L347.2,191.5z"/>
		<path class="st0" d="M369.6,198.3l1.1,0.6c-0.4,0.7-0.8,1.3-1.2,1.7c-0.5,0.4-1,0.8-1.6,1c-0.6,0.2-1.3,0.3-2,0.3
			c-1.6,0-2.9-0.5-3.9-1.6c-0.9-1.1-1.4-2.3-1.4-3.7c0-1.3,0.4-2.4,1.2-3.4c1-1.3,2.3-1.9,4-1.9c1.7,0,3.1,0.7,4.1,2
			c0.7,0.9,1.1,2.1,1.1,3.4h-9.1c0,1.2,0.4,2.1,1.1,2.9c0.7,0.7,1.6,1.1,2.7,1.1c0.5,0,1-0.1,1.5-0.3c0.5-0.2,0.9-0.4,1.2-0.7
			C368.8,199.4,369.2,198.9,369.6,198.3z M369.6,195.5c-0.2-0.7-0.4-1.2-0.8-1.7s-0.8-0.7-1.3-1c-0.5-0.3-1.1-0.4-1.7-0.4
			c-1,0-1.8,0.3-2.6,1c-0.5,0.5-0.9,1.2-1.2,2.1H369.6z"/>
		<path class="st0" d="M375.3,191.5h1.3v1.5c0.4-0.6,0.8-1,1.3-1.3s0.9-0.4,1.4-0.4c0.4,0,0.7,0.1,1.1,0.3l-0.7,1.1
			c-0.3-0.1-0.5-0.2-0.7-0.2c-0.4,0-0.8,0.2-1.3,0.5c-0.4,0.4-0.7,0.9-0.9,1.7c-0.2,0.6-0.2,1.7-0.2,3.5v3.4h-1.3V191.5z"/>
		<path class="st0" d="M388.9,192.6l-0.8,0.9c-0.7-0.7-1.4-1-2-1c-0.4,0-0.8,0.1-1.1,0.4c-0.3,0.3-0.5,0.6-0.5,1
			c0,0.3,0.1,0.6,0.4,0.9c0.2,0.3,0.8,0.7,1.6,1.1c1,0.5,1.6,1,2,1.4c0.3,0.5,0.5,1,0.5,1.6c0,0.8-0.3,1.5-0.9,2.1
			c-0.6,0.6-1.3,0.9-2.2,0.9c-0.6,0-1.1-0.1-1.7-0.4c-0.5-0.3-1-0.6-1.3-1l0.8-0.9c0.7,0.7,1.4,1.1,2.1,1.1c0.5,0,1-0.2,1.3-0.5
			c0.4-0.3,0.5-0.7,0.5-1.2c0-0.4-0.1-0.7-0.4-1c-0.2-0.3-0.8-0.6-1.6-1.1c-0.9-0.5-1.5-0.9-1.9-1.4c-0.3-0.5-0.5-1-0.5-1.6
			c0-0.8,0.3-1.4,0.8-1.9c0.5-0.5,1.2-0.8,2-0.8C387.1,191.3,388,191.7,388.9,192.6z"/>
		<path class="st0" d="M394.1,187.4c0.3,0,0.5,0.1,0.8,0.3c0.2,0.2,0.3,0.5,0.3,0.8c0,0.3-0.1,0.5-0.3,0.8c-0.2,0.2-0.5,0.3-0.8,0.3
			c-0.3,0-0.5-0.1-0.7-0.3c-0.2-0.2-0.3-0.5-0.3-0.8c0-0.3,0.1-0.5,0.3-0.8C393.5,187.5,393.8,187.4,394.1,187.4z M393.4,191.5h1.3
			v10.1h-1.3V191.5z"/>
		<path class="st0" d="M400.9,187.8h1.3v3.7h2.1v1.1h-2.1v9h-1.3v-9h-1.8v-1.1h1.8V187.8z"/>
		<path class="st0" d="M418.6,191.5v10.1h-1.3v-1.7c-0.5,0.7-1.2,1.2-1.8,1.5c-0.7,0.3-1.4,0.5-2.2,0.5c-1.4,0-2.6-0.5-3.7-1.6
			c-1-1-1.5-2.3-1.5-3.8c0-1.5,0.5-2.7,1.5-3.7c1-1,2.2-1.5,3.7-1.5c0.8,0,1.6,0.2,2.2,0.5c0.7,0.4,1.3,0.9,1.8,1.6v-1.9H418.6z
			 M413.5,192.5c-0.7,0-1.4,0.2-2,0.5c-0.6,0.4-1.1,0.9-1.5,1.5c-0.4,0.6-0.5,1.3-0.5,2c0,0.7,0.2,1.4,0.5,2
			c0.4,0.6,0.9,1.2,1.5,1.5c0.6,0.4,1.3,0.5,2,0.5c0.7,0,1.4-0.2,2-0.5c0.6-0.4,1.1-0.8,1.5-1.5c0.3-0.6,0.5-1.3,0.5-2.1
			c0-1.2-0.4-2.1-1.2-2.9C415.5,192.9,414.6,192.5,413.5,192.5z M414.2,186.8h2l-2.7,2.9h-1.3L414.2,186.8z"/>
		<path class="st0" d="M423.4,191.5h1.3v1.5c0.4-0.6,0.8-1,1.3-1.3s0.9-0.4,1.4-0.4c0.4,0,0.7,0.1,1.1,0.3l-0.7,1.1
			c-0.3-0.1-0.5-0.2-0.7-0.2c-0.4,0-0.8,0.2-1.3,0.5c-0.4,0.4-0.7,0.9-0.9,1.7c-0.2,0.6-0.2,1.7-0.2,3.5v3.4h-1.3V191.5z"/>
		<path class="st0" d="M432.5,187.4c0.3,0,0.5,0.1,0.8,0.3c0.2,0.2,0.3,0.5,0.3,0.8c0,0.3-0.1,0.5-0.3,0.8c-0.2,0.2-0.5,0.3-0.8,0.3
			c-0.3,0-0.5-0.1-0.7-0.3c-0.2-0.2-0.3-0.5-0.3-0.8c0-0.3,0.1-0.5,0.3-0.8C431.9,187.5,432.2,187.4,432.5,187.4z M431.8,191.5h1.3
			v10.1h-1.3V191.5z"/>
		<path class="st0" d="M443,191.3c1.6,0,2.8,0.6,3.9,1.7c0.9,1,1.4,2.2,1.4,3.6c0,1.4-0.5,2.6-1.5,3.7c-1,1.1-2.2,1.6-3.8,1.6
			c-1.5,0-2.8-0.5-3.8-1.6c-1-1.1-1.5-2.3-1.5-3.7c0-1.4,0.5-2.6,1.4-3.6C440.1,191.8,441.4,191.3,443,191.3z M442.9,192.5
			c-1.1,0-2,0.4-2.8,1.2c-0.8,0.8-1.2,1.8-1.2,2.9c0,0.7,0.2,1.4,0.5,2c0.4,0.6,0.8,1.1,1.4,1.5c0.6,0.3,1.3,0.5,2,0.5
			c0.7,0,1.4-0.2,2-0.5c0.6-0.3,1.1-0.8,1.4-1.5c0.4-0.6,0.5-1.3,0.5-2c0-1.1-0.4-2.1-1.2-2.9C444.9,192.9,444,192.5,442.9,192.5z"
			/>
	</g>
	<line class="st5" x1="191" y1="181.2" x2="461.1" y2="181.2"/>
	<text transform="matrix(1 0 0 1 77.8587 96.6926)" class="st6 st7 st8">.............................................................................</text>
	<text transform="matrix(1 0 0 1 77.8587 96.345)" class="st6 st7 st8">.............................................................................</text>
	<text transform="matrix(1 0 0 1 77.8587 96.051)" class="st6 st7 st8">.............................................................................</text>
	<text transform="matrix(1 0 0 1 77.8587 97.095)" class="st6 st7 st8">.............................................................................</text>
	<text transform="matrix(1 0 0 1 77.8587 97.4983)" class="st6 st7 st8">.............................................................................</text>
	<text transform="matrix(1 0 0 1 77.8587 97.8938)" class="st6 st7 st8">.............................................................................</text>
	<text transform="matrix(1 0 0 1 77.8587 98.2923)" class="st6 st7 st8">.............................................................................</text>
	<text transform="matrix(1 0 0 1 77.8587 98.6868)" class="st6 st7 st8">.............................................................................</text>
	<text transform="matrix(1 0 0 1 77.8587 99.0852)" class="st6 st7 st8">.............................................................................</text>
	<text transform="matrix(1 0 0 1 77.8587 99.4827)" class="st6 st7 st8">.............................................................................</text>
	<text transform="matrix(1 0 0 1 77.8587 99.8811)" class="st6 st7 st8">.............................................................................</text>
	<text transform="matrix(1 0 0 1 77.8587 100.2786)" class="st6 st7 st8">.............................................................................</text>
	<text transform="matrix(1 0 0 1 77.8587 100.6839)" class="st6 st7 st8">.............................................................................</text>
	<text transform="matrix(1 0 0 1 77.8587 101.0823)" class="st6 st7 st8">.............................................................................</text>
	<text transform="matrix(1 0 0 1 77.8587 101.4348)" class="st6 st7 st8">.............................................................................</text>
	<text transform="matrix(1 0 0 1 77.8587 101.7659)" class="st6 st7 st8">.............................................................................</text>
	<g>
		<path class="st0" d="M81.8,101.1v-4.5h0.9c0.7,0,1.2,0.1,1.5,0.2c0.4,0.2,0.8,0.4,1,0.8s0.4,0.8,0.4,1.4c0,0.5-0.1,0.9-0.3,1.2
			c-0.2,0.3-0.4,0.6-0.8,0.8c-0.3,0.2-0.7,0.2-1.3,0.2H81.8z M82.3,100.6h0.5c0.6,0,1.1,0,1.3-0.1c0.3-0.1,0.6-0.3,0.8-0.6
			c0.2-0.3,0.3-0.6,0.3-1.1c0-0.4-0.1-0.8-0.3-1.1c-0.2-0.3-0.5-0.5-0.9-0.6C83.7,97,83.2,97,82.6,97h-0.3V100.6z"/>
		<path class="st0" d="M87.1,96.6h2.6V97h-2.1v1.4h2.1v0.4h-2.1v1.8h2.1v0.4h-2.6V96.6z"/>
		<path class="st0" d="M90.6,100.2L91,100c0.3,0.5,0.6,0.7,0.9,0.7c0.2,0,0.3,0,0.4-0.1c0.1-0.1,0.2-0.2,0.3-0.3
			c0.1-0.1,0.1-0.2,0.1-0.4c0-0.2-0.1-0.3-0.2-0.4c-0.1-0.2-0.4-0.4-0.8-0.7c-0.4-0.3-0.6-0.5-0.7-0.6c-0.2-0.2-0.2-0.4-0.2-0.7
			c0-0.2,0-0.4,0.1-0.5c0.1-0.2,0.2-0.3,0.4-0.4s0.4-0.1,0.6-0.1c0.2,0,0.4,0.1,0.6,0.2c0.2,0.1,0.4,0.3,0.6,0.6l-0.4,0.3
			c-0.2-0.2-0.3-0.4-0.4-0.4c-0.1-0.1-0.3-0.1-0.4-0.1c-0.2,0-0.3,0.1-0.4,0.2c-0.1,0.1-0.2,0.2-0.2,0.4c0,0.1,0,0.2,0.1,0.3
			c0,0.1,0.1,0.2,0.2,0.3c0.1,0.1,0.3,0.2,0.6,0.5c0.4,0.3,0.7,0.5,0.8,0.8c0.1,0.2,0.2,0.5,0.2,0.7c0,0.3-0.1,0.6-0.4,0.9
			c-0.2,0.2-0.6,0.4-0.9,0.4c-0.3,0-0.5-0.1-0.7-0.2C91,100.8,90.8,100.6,90.6,100.2z"/>
		<path class="st0" d="M94.8,101.1v-4.5h0.9c0.7,0,1.2,0.1,1.5,0.2c0.4,0.2,0.8,0.4,1,0.8c0.2,0.4,0.4,0.8,0.4,1.4
			c0,0.5-0.1,0.9-0.3,1.2c-0.2,0.3-0.4,0.6-0.8,0.8c-0.3,0.2-0.7,0.2-1.3,0.2H94.8z M95.2,100.6h0.5c0.6,0,1.1,0,1.3-0.1
			c0.3-0.1,0.6-0.3,0.8-0.6c0.2-0.3,0.3-0.6,0.3-1.1c0-0.4-0.1-0.8-0.3-1.1c-0.2-0.3-0.5-0.5-0.9-0.6C96.7,97,96.2,97,95.5,97h-0.3
			V100.6z"/>
		<path class="st0" d="M100.1,96.6h2.6V97h-2.1v1.4h2.1v0.4h-2.1v1.8h2.1v0.4h-2.6V96.6z"/>
		<path class="st0" d="M107,96.6h0.9v4.5h-0.4V97h-0.7L107,96.6z"/>
		<path class="st0" d="M111.1,101.2l-0.4-0.2l1.2-1.8c-0.2,0.1-0.3,0.1-0.5,0.1c-0.4,0-0.7-0.1-0.9-0.4c-0.3-0.3-0.4-0.6-0.4-1
			c0-0.3,0.1-0.5,0.2-0.7c0.1-0.2,0.3-0.4,0.5-0.5c0.2-0.1,0.5-0.2,0.7-0.2c0.2,0,0.5,0.1,0.7,0.2c0.2,0.1,0.4,0.3,0.5,0.5
			c0.1,0.2,0.2,0.4,0.2,0.7c0,0.2,0,0.4-0.1,0.6c-0.1,0.2-0.2,0.4-0.4,0.7L111.1,101.2z M111.6,98.8c0.3,0,0.5-0.1,0.7-0.3
			c0.2-0.2,0.3-0.4,0.3-0.7c0-0.3-0.1-0.5-0.3-0.7c-0.2-0.2-0.4-0.3-0.7-0.3c-0.3,0-0.5,0.1-0.7,0.3c-0.2,0.2-0.3,0.4-0.3,0.7
			c0,0.3,0.1,0.5,0.3,0.7C111.1,98.7,111.3,98.8,111.6,98.8z"/>
		<path class="st0" d="M115.2,101.2l-0.4-0.2l1.2-1.8c-0.2,0.1-0.3,0.1-0.5,0.1c-0.4,0-0.7-0.1-0.9-0.4c-0.3-0.3-0.4-0.6-0.4-1
			c0-0.3,0.1-0.5,0.2-0.7c0.1-0.2,0.3-0.4,0.5-0.5c0.2-0.1,0.5-0.2,0.7-0.2c0.2,0,0.5,0.1,0.7,0.2c0.2,0.1,0.4,0.3,0.5,0.5
			c0.1,0.2,0.2,0.4,0.2,0.7c0,0.2,0,0.4-0.1,0.6s-0.2,0.4-0.4,0.7L115.2,101.2z M115.7,98.8c0.3,0,0.5-0.1,0.7-0.3
			c0.2-0.2,0.3-0.4,0.3-0.7c0-0.3-0.1-0.5-0.3-0.7c-0.2-0.2-0.4-0.3-0.7-0.3c-0.3,0-0.5,0.1-0.7,0.3c-0.2,0.2-0.3,0.4-0.3,0.7
			c0,0.3,0.1,0.5,0.3,0.7C115.2,98.7,115.4,98.8,115.7,98.8z"/>
		<path class="st0" d="M118.5,96.6h2.9l-2.4,4.6l-0.4-0.2l2.1-4h-2.2V96.6z"/>
	</g>
	<text transform="matrix(1 0 0 1 125.634 96.051)" class="st6 st7 st8">.</text>
	<text transform="matrix(1 0 0 1 125.634 96.345)" class="st6 st7 st8">.</text>
	<text transform="matrix(1 0 0 1 125.634 96.6926)" class="st6 st7 st8">.</text>
	<text transform="matrix(1 0 0 1 125.634 97.1028)" class="st6 st7 st8">.</text>
	<text transform="matrix(1 0 0 1 125.634 97.4983)" class="st6 st7 st8">.</text>
	<text transform="matrix(1 0 0 1 125.634 97.8938)" class="st6 st7 st8">.</text>
	<text transform="matrix(1 0 0 1 125.634 98.2923)" class="st6 st7 st8">.</text>
	<text transform="matrix(1 0 0 1 125.634 98.6868)" class="st6 st7 st8">.</text>
	<text transform="matrix(1 0 0 1 125.634 99.0852)" class="st6 st7 st8">.</text>
	<text transform="matrix(1 0 0 1 125.634 99.4827)" class="st6 st7 st8">.</text>
	<text transform="matrix(1 0 0 1 125.634 99.8811)" class="st6 st7 st8">.</text>
	<text transform="matrix(1 0 0 1 125.634 100.2786)" class="st6 st7 st8">.</text>
	<text transform="matrix(1 0 0 1 125.634 100.6839)" class="st6 st7 st8">.</text>
	<text transform="matrix(1 0 0 1 125.634 101.0823)" class="st6 st7 st8">.</text>
	<text transform="matrix(1 0 0 1 125.634 101.4749)" class="st6 st7 st8">.</text>
	<text transform="matrix(1 0 0 1 125.634 101.7659)" class="st6 st7 st8">.</text>
	<rect x="83.1" y="97.5" class="st9" width="38.1" height="4.7"/>
	<polygon class="st9" points="36,157.3 40.1,157.3 40.1,163.4 49,168.8 46.1,172.8 36,167.4 	"/>
	<polygon class="st0" points="36.7,158.1 39.4,158.1 39.4,163.9 47.9,169 45.8,171.8 36.7,166.9 	"/>
	<polygon class="st9" points="61.4,156 65.5,156 65.5,162.2 74.4,167.6 71.4,171.6 61.4,166.1 	"/>
	<polygon class="st9" points="62.1,156.8 64.8,156.8 64.8,162.7 73.3,167.8 71.2,170.6 62.1,165.7 	"/>
	<polygon class="st0" points="13.3,171 13.3,175.2 19.3,178.8 18,180.7 11.6,177.2 11.6,171 	"/>
</g>
</svg>
