<?xml version="1.0" encoding="utf-8"?>
<!-- Generator: Adobe Illustrator 22.1.0, SVG Export Plug-In . SVG Version: 6.00 Build 0)  -->
<svg version="1.1" id="Camada_1" xmlns="http://www.w3.org/2000/svg" xmlns:xlink="http://www.w3.org/1999/xlink" x="0px" y="0px"
	 viewBox="0 0 283.9 263.8" style="enable-background:new 0 0 283.9 263.8;" xml:space="preserve">
<style type="text/css">
	.st0{fill:#DEA02B;}
	.st1{fill:#21559C;}
</style>
<g>
	<g>
		<g>
			<path class="st0" d="M56.2,24c-0.5-1.2-0.7-2.4-0.7-3.7c0-1.4,0.3-2.6,0.9-3.7c0.6-1.1,1.4-2.1,2.2-2.9c0.9-0.8,2-1.4,3.2-1.9
				c1.2-0.4,2.5-0.7,3.8-0.7c1.6,0,3.1,0.5,4.7,1.5s2.9,2.5,3.7,4.7l11.8,30.4l11.9-30.5c0.9-2.2,2-3.7,3.5-4.7
				c1.4-1,3.1-1.5,4.9-1.5c1.3,0,2.5,0.2,3.7,0.7c1.2,0.4,2.3,1.1,3.2,1.9c0.9,0.8,1.7,1.7,2.2,2.9c0.6,1.1,0.8,2.4,0.8,3.7
				c0,0.6-0.1,1.2-0.1,1.9c-0.1,0.6-0.2,1.2-0.5,1.8L95,73.5c-1.7,4.2-4.7,6.3-8.8,6.3c-4,0-7.3-2.1-9.6-6.3L56.2,24z"/>
			<path class="st0" d="M150.6,70.7h-24.2l-1.4,3.3c-1.7,4.1-4.5,6.2-8.2,6.2c-1.3,0-2.5-0.2-3.8-0.6c-1.2-0.4-2.3-1.1-3.3-1.9
				c-0.9-0.8-1.7-1.7-2.3-2.9s-0.9-2.4-0.9-3.7c0.1-0.6,0.1-1.2,0.1-1.8s0.2-1.3,0.5-2l20.9-50c0.8-2.2,1.9-3.7,3.5-4.7
				c1.5-1,3.2-1.5,4.9-1.5c1.3,0,2.5,0.2,3.7,0.7c1.2,0.4,2.3,1.1,3.2,1.9c0.9,0.8,1.7,1.7,2.2,2.9c0.6,1.1,0.8,2.4,0.8,3.7
				c0,0.6-0.1,1.2-0.1,1.9c-0.1,0.6-0.2,1.2-0.5,1.8l-12.4,29.5h9.3l-1.1-2.5c-0.3-0.6-0.5-1.2-0.6-1.9c-0.1-0.6-0.1-1.2-0.1-1.9
				c0-1.4,0.3-2.6,0.9-3.7c0.6-1.1,1.4-2.1,2.2-2.9c0.9-0.8,2-1.5,3.2-1.9s2.5-0.7,3.8-0.7c1.8,0,3.4,0.5,4.9,1.6
				c1.5,1,2.7,2.6,3.5,4.7l10.3,23c0.5,1.5,0.7,2.7,0.7,3.8c0,1.4-0.3,2.6-0.9,3.7c-0.6,1.1-1.4,2.1-2.3,2.9s-2.1,1.4-3.3,1.9
				c-1.2,0.4-2.5,0.6-3.8,0.6c-1.8,0-3.4-0.5-4.8-1.5s-2.6-2.5-3.5-4.7L150.6,70.7z"/>
			<path class="st0" d="M213.2,75.8l-16.5-24.9v19.6c0,3.1-0.9,5.4-2.8,7c-1.9,1.6-4.1,2.4-6.7,2.4c-1.3,0-2.5-0.2-3.7-0.6
				c-1.1-0.4-2.1-1-3-1.8c-0.9-0.8-1.6-1.8-2.1-3c-0.5-1.2-0.7-2.5-0.7-4V20.8c0-3,0.9-5.3,2.8-7c1.9-1.6,4.1-2.4,6.6-2.4
				c1.9,0,3.4,0.3,4.7,1c1.2,0.6,2.3,1.7,3.1,3.3L212,41.8V20.7c0-1.6,0.2-2.9,0.8-4c0.5-1.2,1.2-2.2,2.1-3c0.9-0.8,1.9-1.4,3-1.8
				s2.4-0.6,3.7-0.6c2.6,0,4.8,0.8,6.7,2.4c1.9,1.6,2.8,3.9,2.8,7v49.7c0,3.1-0.9,5.4-2.8,7c-1.9,1.6-4.1,2.4-6.7,2.4
				c-1.3,0-2.4-0.2-3.3-0.5c-0.9-0.3-1.7-0.7-2.4-1.2c-0.6-0.4-1.2-0.9-1.6-1.4c-0.4-0.4-0.7-0.9-1-1.2L213.2,75.8z"/>
		</g>
	</g>
	<g>
		<g>
			<path class="st1" d="M178.1,110.8c0,4.1-0.8,8-2.4,11.6s-3.7,6.7-6.4,9.4c-2.7,2.7-5.8,4.8-9.4,6.3c-3.6,1.6-7.5,2.3-11.6,2.3
				c-4.1,0-8-0.7-11.5-2.3c-3.6-1.6-6.7-3.6-9.4-6.3c-2.7-2.7-4.8-5.8-6.3-9.4c-1.6-3.6-2.4-7.5-2.4-11.6c0-4.1,0.8-8,2.4-11.6
				c1.6-3.6,3.7-6.7,6.3-9.4c2.7-2.7,5.8-4.8,9.4-6.3c3.6-1.6,7.4-2.4,11.5-2.4c4.1,0,8,0.8,11.6,2.4c3.6,1.6,6.8,3.7,9.4,6.3
				c2.7,2.7,4.8,5.8,6.4,9.4C177.4,102.9,178.1,106.8,178.1,110.8z M162,111c0-1.9-0.4-3.6-1.1-5.2c-0.7-1.6-1.7-3-2.9-4.3
				c-1.2-1.2-2.7-2.2-4.3-2.9c-1.6-0.7-3.4-1.1-5.2-1.1c-1.9,0-3.6,0.4-5.2,1.1c-1.6,0.7-3,1.7-4.2,2.9c-1.2,1.2-2.1,2.7-2.9,4.3
				c-0.7,1.6-1.1,3.4-1.1,5.2s0.4,3.6,1.1,5.2c0.7,1.6,1.6,3,2.9,4.2c1.2,1.2,2.6,2.1,4.2,2.9c1.6,0.7,3.4,1.1,5.2,1.1
				c1.9,0,3.6-0.4,5.2-1.1c1.6-0.7,3-1.6,4.3-2.9c1.2-1.2,2.2-2.6,2.9-4.2C161.7,114.6,162,112.9,162,111z"/>
			<path class="st1" d="M192.3,140c-5.2,0-7.7-2.6-7.7-7.8c0-5.5,2.6-8.3,7.8-8.3h21.4c2.1,0,3.2-0.8,3.2-2.4s-1.1-2.4-3.2-2.4h-13
				c-11.4-0.3-17-6.5-17-18.5c0-12.3,6.1-18.5,18.2-18.5h17.6c5.1,0,7.6,2.6,7.6,7.8c0,5.5-2.5,8.3-7.7,8.3h-18.6
				c-2.1,0-3.2,0.8-3.2,2.4s1.1,2.4,3.2,2.4H214c11.4,0.3,17,6.5,17,18.5c0,12.3-6,18.5-18,18.5H192.3z"/>
		</g>
	</g>
	<path class="st1" d="M110.4,81.9c-1.7-1.4-3.6-2.2-5.8-2.2c-1.6,0-3,0.3-4.1,0.9c-1.1,0.6-2.1,1.6-2.7,2.9L84.3,104L70.8,83.5
		c-0.7-1.4-1.6-2.3-2.7-2.9c-1.1-0.6-2.5-0.9-4.1-0.9c-2.2,0-4.2,0.7-5.8,2.2c-1.7,1.4-2.5,3.5-2.5,6.2V132c0,1.4,0.2,2.5,0.6,3.6
		s1.1,1.9,1.8,2.6c0.7,0.7,1.6,1.2,2.7,1.6c1,0.4,2.1,0.6,3.2,0.6c2.3,0,4.2-0.7,5.9-2.1s2.5-3.5,2.5-6.2v-17.1l5.5,10.8
		c1.7,2.4,3.9,3.6,6.8,3.6c2.9,0,5-1.2,6.2-3.6l5.3-10.4v16.8c0,2.7,0.8,4.8,2.5,6.2c1.7,1.4,3.6,2.1,5.9,2.1c1.1,0,2.2-0.2,3.2-0.6
		s1.9-0.9,2.7-1.6c0.7-0.7,1.4-1.6,1.8-2.6c0.4-1.1,0.6-2.2,0.6-3.6V88.1C112.9,85.4,112,83.4,110.4,81.9z"/>
</g>
</svg>
