<?xml version="1.0" encoding="UTF-8"?>
<!DOCTYPE svg PUBLIC "-//W3C//DTD SVG 1.1//EN" "http://www.w3.org/Graphics/SVG/1.1/DTD/svg11.dtd">
<!-- Creator: CorelDRAW 2018 (64 Bit Versão de avaliação) -->
<svg xmlns="http://www.w3.org/2000/svg" xml:space="preserve" width="297mm" height="210mm" version="1.1" style="shape-rendering:geometricPrecision; text-rendering:geometricPrecision; image-rendering:optimizeQuality; fill-rule:evenodd; clip-rule:evenodd"
viewBox="0 0 29700 21000"
 xmlns:xlink="http://www.w3.org/1999/xlink">
 <defs>
  <style type="text/css">
   <![CDATA[
    .fil0 {fill:none}
    .fil2 {fill:#21559C}
    .fil1 {fill:#DEA02B}
   ]]>
  </style>
 </defs>
 <g id="Camada_x0020_1">
  <metadata id="CorelCorpID_0Corel-Layer"/>
  <rect class="fil0" width="29700" height="21000"/>
  <g id="_2706259177664">
   <g>
    <g>
     <path class="fil1" d="M4497.41 4349.08c-59.42,-142.63 -83.2,-285.27 -83.2,-439.78 0,-166.41 35.65,-309.03 106.97,-439.78 71.31,-130.75 166.4,-249.61 261.48,-344.69 106.97,-95.09 237.72,-166.41 380.34,-225.83 142.63,-47.54 297.14,-83.2 451.66,-83.2 190.17,0 368.46,59.42 558.64,178.28 190.17,118.86 344.68,297.14 439.77,558.64l1402.53 3613.3 1414.42 -3625.19c106.97,-261.48 237.72,-439.78 416,-558.64 166.4,-118.86 368.46,-178.28 582.4,-178.28 154.52,0 297.14,23.77 439.78,83.2 142.62,47.55 273.37,130.75 380.34,225.83 106.97,95.09 202.06,202.06 261.49,344.69 71.31,130.75 95.09,285.26 95.09,439.78 0,71.31 -11.89,142.62 -11.89,225.82 -11.89,71.32 -23.77,142.63 -59.42,213.96l-2424.7 5895.38c-202.06,499.2 -558.64,748.81 -1045.95,748.81 -475.43,0 -867.66,-249.61 -1141.04,-748.81l-2424.71 -5883.49z"/>
     <path class="fil1" d="M15717.65 9899.76l-2876.38 0 -166.4 392.23c-202.07,487.33 -534.86,736.92 -974.64,736.92 -154.52,0 -297.14,-23.76 -451.66,-71.31 -142.62,-47.55 -273.37,-130.75 -392.23,-225.83 -106.97,-95.09 -202.06,-202.06 -273.37,-344.68 -71.31,-142.63 -106.97,-285.27 -106.97,-439.78 11.89,-71.32 11.89,-142.63 11.89,-213.96 0,-71.32 23.77,-154.51 59.42,-237.71l2484.15 -5942.94c95.09,-261.48 225.83,-439.78 416,-558.64 178.28,-118.85 380.34,-178.28 582.4,-178.28 154.52,0 297.14,23.77 439.78,83.21 142.63,47.54 273.38,130.75 380.34,225.82 106.97,95.1 202.07,202.07 261.49,344.69 71.31,130.75 95.09,285.27 95.09,439.78 0,71.31 -11.89,142.62 -11.89,225.83 -11.89,71.31 -23.77,142.62 -59.42,213.95l-1473.84 3506.33 1105.37 0.02 -130.75 -297.14c-35.65,-71.31 -59.42,-142.63 -71.31,-225.83 -11.89,-71.31 -11.89,-142.62 -11.89,-225.83 0,-166.4 35.65,-309.03 106.97,-439.78 71.31,-130.75 166.4,-249.6 261.48,-344.68 106.97,-95.1 237.72,-178.28 380.34,-225.83 142.63,-47.55 297.14,-83.2 451.66,-83.2 213.95,0 404.12,59.42 582.4,190.17 178.28,118.86 320.92,309.03 416,558.64l1224.25 2733.74c59.42,178.28 83.2,320.92 83.2,451.65 0,166.41 -35.66,309.03 -106.97,439.78 -71.31,130.75 -166.41,249.61 -273.37,344.69 -106.97,95.08 -249.61,166.4 -392.24,225.83 -142.62,47.54 -297.14,71.31 -451.65,71.31 -213.95,0 -404.13,-59.42 -570.52,-178.28 -166.38,-118.86 -309.03,-297.14 -415.99,-558.64l-130.74 -392.25z"/>
     <path class="fil1" d="M23158.19 10505.95l-1961.17 -2959.59 0 2329.63c0,368.47 -106.96,641.85 -332.81,832.02 -225.82,190.17 -487.32,285.26 -796.35,285.26 -154.52,0 -297.14,-23.76 -439.78,-71.31 -130.75,-47.55 -249.61,-118.86 -356.58,-213.95 -106.97,-95.1 -190.17,-213.96 -249.61,-356.58 -59.42,-142.62 -83.2,-297.14 -83.2,-475.44l0.03 -5907.26c0,-356.57 106.97,-629.95 332.81,-832.01 225.83,-190.17 487.33,-285.26 784.47,-285.26 225.82,0 404.12,35.65 558.64,118.86 142.62,71.31 273.37,202.06 368.46,392.23l2032.46 3102.21 0 -2507.92c0,-190.17 23.77,-344.68 95.1,-475.43 59.42,-142.63 142.62,-261.49 249.61,-356.58 106.97,-95.09 225.82,-166.41 356.57,-213.95 130.75,-47.55 285.27,-71.31 439.78,-71.31 309.03,0 570.52,95.09 796.36,285.26 225.83,190.17 332.81,463.55 332.81,832.01l0 5907.26c0,368.47 -106.97,641.85 -332.81,832.02 -225.83,190.17 -487.33,285.26 -796.36,285.26 -154.51,0 -285.26,-23.76 -392.23,-59.42 -106.97,-35.66 -202.06,-83.2 -285.26,-142.62 -71.32,-47.55 -142.63,-106.97 -190.18,-166.41 -47.54,-47.55 -83.2,-106.97 -118.85,-142.62l-11.91 35.64z"/>
    </g>
   </g>
   <g>
    <g>
     <path class="fil2" d="M18986.27 14665.99c0,487.33 -95.1,950.87 -285.27,1378.76 -190.17,427.89 -439.78,796.36 -760.7,1117.28 -320.92,320.92 -689.37,570.52 -1117.28,748.81 -427.89,190.17 -891.43,273.38 -1378.76,273.38 -487.32,0 -950.87,-83.21 -1366.87,-273.38 -427.89,-190.17 -796.35,-427.89 -1117.27,-748.81 -320.93,-320.92 -570.52,-689.37 -748.81,-1117.28 -190.18,-427.89 -285.27,-891.43 -285.27,-1378.76 0,-487.32 95.09,-950.87 285.27,-1378.76 190.17,-427.89 439.77,-796.35 748.81,-1117.28 320.92,-320.92 689.37,-570.51 1117.27,-748.81 427.89,-190.17 879.56,-285.26 1366.87,-285.26 487.33,0 950.87,95.09 1378.76,285.26 427.89,190.18 808.23,439.78 1117.28,748.81 320.92,320.93 570.51,689.38 760.7,1117.28 202.06,439.78 285.27,903.33 285.27,1378.76zm-1913.64 23.77c0,-225.83 -47.54,-427.89 -130.75,-618.06 -83.2,-190.17 -202.06,-356.58 -344.68,-511.09 -142.63,-142.63 -320.92,-261.49 -511.1,-344.69 -190.17,-83.2 -404.12,-130.75 -618.06,-130.75 -225.82,0 -427.88,47.55 -618.06,130.75 -190.17,83.2 -356.57,202.06 -499.2,344.69 -142.62,142.62 -249.61,320.92 -344.68,511.09 -83.21,190.17 -130.75,404.12 -130.75,618.06 0,213.94 47.54,427.89 130.75,618.06 83.2,190.17 190.17,356.58 344.68,499.2 142.63,142.62 309.03,249.61 499.2,344.69 190.18,83.2 404.13,130.75 618.06,130.75 225.83,0 427.89,-47.55 618.06,-130.75 190.18,-83.21 356.58,-190.17 511.1,-344.69 142.62,-142.62 261.48,-309.03 344.68,-499.2 95.1,-190.17 130.75,-392.22 130.75,-618.06z"/>
     <path class="fil2" d="M20674.06 18136.67c-618.06,0 -915.22,-309.03 -915.22,-927.09 0,-653.72 309.03,-986.53 927.09,-986.53l2543.57 -0.02c249.61,0 380.34,-95.09 380.34,-285.26 0,-190.17 -130.75,-285.26 -380.34,-285.26l-1545.15 0.01c-1354.98,-35.66 -2020.6,-772.57 -2020.6,-2198.88 0,-1461.97 725.04,-2198.88 2163.22,-2198.88l2091.92 0c606.19,0 903.32,309.03 903.32,927.09 0,653.71 -297.13,986.52 -915.21,986.52l-2210.77 0c-249.61,0 -380.35,95.1 -380.35,285.27 0,190.17 130.75,285.26 380.35,285.26l1557.05 0c1354.98,35.66 2020.61,772.58 2020.61,2198.89 0,1461.96 -713.16,2198.88 -2139.45,2198.88l-2460.38 0z"/>
    </g>
   </g>
   <path class="fil2" d="M10939.54 11230.97c-202.06,-166.4 -427.88,-261.48 -689.37,-261.48 -190.17,0 -356.57,35.66 -487.32,106.97 -130.75,71.31 -249.61,190.17 -320.93,344.68l-1604.58 2436.62 -1604.59 -2436.6c-83.2,-166.4 -190.17,-273.37 -320.92,-344.69 -130.75,-71.31 -297.14,-106.96 -487.33,-106.96 -261.48,0 -499.2,83.2 -689.37,261.48 -202.06,166.41 -297.14,416 -297.14,736.92l-0.02 5217.89c0,166.4 23.77,297.14 71.32,427.89 47.54,130.75 130.75,225.82 213.95,309.03 83.2,83.2 190.17,142.62 320.92,190.17 118.86,47.54 249.61,71.31 380.34,71.31 273.38,0 499.2,-83.2 701.26,-249.61 202.07,-166.4 297.14,-416 297.14,-736.92l0 -2032.48 653.72 1283.67c202.06,285.27 463.55,427.89 808.23,427.89 344.69,0 594.3,-142.62 736.92,-427.89l629.95 -1236.12 0 1996.82c0,320.92 95.1,570.52 297.14,736.92 202.06,166.41 427.89,249.61 701.26,249.61 130.75,0 261.49,-23.77 380.35,-71.31 118.86,-47.55 225.82,-106.97 320.92,-190.17 83.2,-83.21 166.4,-190.17 213.95,-309.03 47.55,-130.75 71.31,-261.49 71.31,-427.89l0.03 -5229.78c0,-320.92 -106.96,-558.64 -297.14,-736.94z"/>
  </g>
 </g>
</svg>
